<svg width="12" height="18" viewBox="0 0 12 18" fill="none" xmlns="http://www.w3.org/2000/svg">
<path d="M10.6445 17.4617L10.6435 17.4609L1.23585 9.71304C1.23562 9.71284 1.23538 9.71265 1.23515 9.71245C0.92985 9.45866 0.80471 9.15073 0.808574 8.86744C0.812456 8.58292 0.947205 8.27665 1.25328 8.03043C1.2535 8.03025 1.25372 8.03008 1.25394 8.0299L10.653 0.532375C10.723 0.48414 10.8438 0.490922 10.9093 0.544495C10.9192 0.559109 10.9226 0.574619 10.9214 0.590092C10.92 0.607529 10.912 0.631385 10.8846 0.65504L1.4805 8.13443L1.48046 8.13438L1.47479 8.13903C1.26094 8.3143 1.10938 8.56929 1.10938 8.86893C1.10938 9.16834 1.26071 9.42317 1.4743 9.59842C1.47446 9.59855 1.47463 9.59869 1.47479 9.59882L10.8821 17.3464C10.8822 17.3465 10.8823 17.3465 10.8823 17.3466C10.9121 17.3713 10.917 17.3933 10.9176 17.4035C10.918 17.4097 10.9171 17.4157 10.9148 17.422C10.9125 17.4279 10.9075 17.4375 10.8957 17.4494C10.8335 17.5117 10.7116 17.5172 10.6445 17.4617Z" fill="#D9D9D9" stroke="black"/>
</svg>
