<svg width="7" height="28" viewBox="0 0 7 28" fill="none" xmlns="http://www.w3.org/2000/svg">
<path d="M3.67092 0.00100464C4.4474 -0.0197253 5.20048 0.281055 5.76756 0.838394C6.33463 1.39573 6.67019 2.16491 6.70177 2.97982C6.68924 3.38445 6.60089 3.78251 6.44175 4.15126C6.28261 4.52001 6.05582 4.8522 5.77434 5.12885C5.49285 5.40551 5.1622 5.62119 4.80128 5.76357C4.44036 5.90595 4.05626 5.97223 3.67092 5.95864C3.28559 5.97223 2.90149 5.90595 2.54057 5.76357C2.17965 5.62119 1.84899 5.40551 1.56751 5.12885C1.28603 4.8522 1.05923 4.52001 0.900098 4.15126C0.740962 3.78251 0.652604 3.38445 0.640076 2.97982C0.671658 2.16491 1.00722 1.39573 1.57429 0.838394C2.14136 0.281055 2.89445 -0.0197253 3.67092 0.00100464ZM3.67092 22.0493C4.22216 22.089 4.75037 22.2968 5.19069 22.6473C5.63101 22.9978 5.96428 23.4757 6.14956 24.0223C6.33484 24.5689 6.36408 25.1604 6.23369 25.7242C6.10329 26.288 5.81894 26.7995 5.41554 27.196C5.01215 27.5924 4.50727 27.8566 3.9629 27.956C3.41854 28.0554 2.85838 27.9857 2.35121 27.7554C1.84404 27.5252 1.41194 27.1445 1.10796 26.66C0.803987 26.1755 0.641369 25.6083 0.640076 25.0282C0.652604 24.6235 0.740962 24.2255 0.900098 23.8567C1.05923 23.488 1.28603 23.1558 1.56751 22.8791C1.84899 22.6025 2.17965 22.3868 2.54057 22.2444C2.90149 22.102 3.28559 22.0357 3.67092 22.0493ZM3.67092 11.0252C4.42331 11.0252 5.14488 11.339 5.6769 11.8976C6.20892 12.4563 6.5078 13.214 6.5078 14.004C6.5078 14.794 6.20892 15.5517 5.6769 16.1103C5.14488 16.669 4.42331 16.9828 3.67092 16.9828C2.91854 16.9828 2.19697 16.669 1.66495 16.1103C1.13293 15.5517 0.83405 14.794 0.83405 14.004C0.83405 13.214 1.13293 12.4563 1.66495 11.8976C2.19697 11.339 2.91854 11.0252 3.67092 11.0252Z" fill="black"/>
</svg>
