<svg width="20" height="20" viewBox="0 0 20 20" fill="none" xmlns="http://www.w3.org/2000/svg">
<path fill-rule="evenodd" clip-rule="evenodd" d="M10 1.53846C5.32682 1.53846 1.53846 5.32682 1.53846 10C1.53846 14.6731 5.32682 18.4615 10 18.4615C14.6731 18.4615 18.4615 14.6731 18.4615 10C18.4615 5.32682 14.6731 1.53846 10 1.53846ZM0 10C0 4.47715 4.47715 0 10 0C15.5229 0 20 4.47715 20 10C20 15.5229 15.5229 20 10 20C4.47715 20 0 15.5229 0 10ZM10 9.23077C10.4248 9.23077 10.7692 9.57518 10.7692 10V13.5897C10.7692 14.0146 10.4248 14.359 10 14.359C9.57518 14.359 9.23077 14.0146 9.23077 13.5897V10C9.23077 9.57518 9.57518 9.23077 10 9.23077ZM10 5.89744C9.43354 5.89744 8.97436 6.35664 8.97436 6.92308C8.97436 7.48952 9.43354 7.94872 10 7.94872H10.0103C10.5767 7.94872 11.0359 7.48952 11.0359 6.92308C11.0359 6.35664 10.5767 5.89744 10.0103 5.89744H10Z" fill="#D7573D"/>
</svg>
