<svg width="57" height="57" viewBox="0 0 57 57" fill="none" xmlns="http://www.w3.org/2000/svg">
<path d="M28.5 0C29.1299 0 29.734 0.250223 30.1794 0.695621C30.6248 1.14102 30.875 1.74511 30.875 2.375V11.875C30.875 12.5049 30.6248 13.109 30.1794 13.5544C29.734 13.9998 29.1299 14.25 28.5 14.25C27.8701 14.25 27.266 13.9998 26.8206 13.5544C26.3752 13.109 26.125 12.5049 26.125 11.875V2.375C26.125 1.74511 26.3752 1.14102 26.8206 0.695621C27.266 0.250223 27.8701 0 28.5 0ZM11.7064 8.34813C11.2584 7.9155 10.6585 7.67611 10.0358 7.68152C9.41308 7.68694 8.8174 7.93671 8.37706 8.37706C7.93671 8.8174 7.68694 9.41308 7.68152 10.0358C7.67611 10.6585 7.9155 11.2584 8.34813 11.7064L15.0646 18.4229C15.5126 18.8555 16.1125 19.0949 16.7352 19.0895C17.3579 19.0841 17.9536 18.8343 18.3939 18.3939C18.8343 17.9536 19.0841 17.3579 19.0895 16.7352C19.0949 16.1125 18.8555 15.5126 18.4229 15.0646L11.7064 8.34813ZM2.375 26.125C1.74511 26.125 1.14102 26.3752 0.695621 26.8206C0.250223 27.266 0 27.8701 0 28.5C0 29.1299 0.250223 29.734 0.695621 30.1794C1.14102 30.6248 1.74511 30.875 2.375 30.875H11.875C12.5049 30.875 13.109 30.6248 13.5544 30.1794C13.9998 29.734 14.25 29.1299 14.25 28.5C14.25 27.8701 13.9998 27.266 13.5544 26.8206C13.109 26.3752 12.5049 26.125 11.875 26.125H2.375ZM42.75 28.5C42.75 27.8701 43.0002 27.266 43.4456 26.8206C43.891 26.3752 44.4951 26.125 45.125 26.125H54.625C55.2549 26.125 55.859 26.3752 56.3044 26.8206C56.7498 27.266 57 27.8701 57 28.5C57 29.1299 56.7498 29.734 56.3044 30.1794C55.859 30.6248 55.2549 30.875 54.625 30.875H45.125C44.4951 30.875 43.891 30.6248 43.4456 30.1794C43.0002 29.734 42.75 29.1299 42.75 28.5ZM41.9354 38.5771C41.4874 38.1445 40.8875 37.9051 40.2648 37.9105C39.6421 37.9159 39.0464 38.1657 38.6061 38.6061C38.1657 39.0464 37.9159 39.6421 37.9105 40.2648C37.9051 40.8875 38.1445 41.4874 38.5771 41.9354L45.2936 48.6519C45.5127 48.8787 45.7748 49.0596 46.0645 49.1841C46.3543 49.3086 46.6659 49.3741 46.9813 49.3768C47.2966 49.3796 47.6094 49.3195 47.9013 49.2001C48.1931 49.0807 48.4583 48.9043 48.6813 48.6813C48.9043 48.4583 49.0807 48.1931 49.2001 47.9013C49.3195 47.6094 49.3796 47.2966 49.3768 46.9813C49.3741 46.6659 49.3086 46.3543 49.1841 46.0645C49.0596 45.7748 48.8787 45.5127 48.6519 45.2936L41.9354 38.5771ZM18.4229 41.9354C18.6497 41.7163 18.8306 41.4542 18.9551 41.1645C19.0796 40.8747 19.1451 40.5631 19.1478 40.2477C19.1506 39.9324 19.0905 39.6196 18.9711 39.3277C18.8517 39.0359 18.6753 38.7707 18.4523 38.5477C18.2293 38.3247 17.9641 38.1483 17.6723 38.0289C17.3804 37.9095 17.0676 37.8494 16.7523 37.8522C16.4369 37.8549 16.1253 37.9204 15.8355 38.0449C15.5458 38.1694 15.2837 38.3503 15.0646 38.5771L8.34813 45.2912C8.12129 45.5103 7.94036 45.7724 7.81588 46.0622C7.69141 46.3519 7.6259 46.6636 7.62315 46.9789C7.62041 47.2943 7.68051 47.607 7.79992 47.8989C7.91934 48.1908 8.09569 48.4559 8.31869 48.6789C8.54168 48.9019 8.80686 49.0783 9.09873 49.1977C9.39061 49.3171 9.70335 49.3772 10.0187 49.3745C10.3341 49.3717 10.6457 49.3062 10.9355 49.1817C11.2252 49.0573 11.4873 48.8763 11.7064 48.6495L18.4229 41.9354ZM48.6519 11.7064C49.0845 11.2584 49.3239 10.6585 49.3185 10.0358C49.3131 9.41308 49.0633 8.8174 48.6229 8.37706C48.1826 7.93671 47.5869 7.68694 46.9642 7.68152C46.3415 7.67611 45.7416 7.9155 45.2936 8.34813L38.5771 15.0646C38.3503 15.2837 38.1694 15.5458 38.0449 15.8355C37.9204 16.1253 37.8549 16.4369 37.8522 16.7523C37.8494 17.0676 37.9095 17.3804 38.0289 17.6723C38.1483 17.9641 38.3247 18.2293 38.5477 18.4523C38.7707 18.6753 39.0359 18.8517 39.3277 18.9711C39.6196 19.0905 39.9324 19.1506 40.2477 19.1478C40.5631 19.1451 40.8747 19.0796 41.1645 18.9551C41.4542 18.8306 41.7163 18.6497 41.9354 18.4229L48.6519 11.7064ZM30.875 45.125C30.875 44.4951 30.6248 43.891 30.1794 43.4456C29.734 43.0002 29.1299 42.75 28.5 42.75C27.8701 42.75 27.266 43.0002 26.8206 43.4456C26.3752 43.891 26.125 44.4951 26.125 45.125V54.625C26.125 55.2549 26.3752 55.859 26.8206 56.3044C27.266 56.7498 27.8701 57 28.5 57C29.1299 57 29.734 56.7498 30.1794 56.3044C30.6248 55.859 30.875 55.2549 30.875 54.625V45.125ZM28.5 16.625C25.3506 16.625 22.3301 17.8761 20.1031 20.1031C17.8761 22.3301 16.625 25.3506 16.625 28.5C16.625 31.6494 17.8761 34.6699 20.1031 36.8969C22.3301 39.1239 25.3506 40.375 28.5 40.375C31.6494 40.375 34.6699 39.1239 36.8969 36.8969C39.1239 34.6699 40.375 31.6494 40.375 28.5C40.375 25.3506 39.1239 22.3301 36.8969 20.1031C34.6699 17.8761 31.6494 16.625 28.5 16.625Z" fill="#203238"/>
</svg>
