<svg width="27" height="32" viewBox="0 0 27 32" fill="none" xmlns="http://www.w3.org/2000/svg">
<path d="M17.9448 26.9215C17.9448 28.1632 17.4293 29.3541 16.5119 30.2321C15.5944 31.1101 14.35 31.6034 13.0525 31.6034C11.7551 31.6034 10.5106 31.1101 9.59316 30.2321C8.67568 29.3541 8.16022 28.1632 8.16022 26.9215" fill="#203238"/>
<path d="M2.58455 25.3609C1.78637 25.1987 1.08069 24.7563 0.60671 24.1207C0.132728 23.485 -0.0750801 22.7025 0.0242824 21.9275L1.65505 9.27083C2.07141 6.66873 3.45557 4.29797 5.55295 2.59475C7.65032 0.891515 10.3198 -0.0296123 13.0704 0.000726221C15.821 -0.0296123 18.4904 0.891515 20.5878 2.59475C22.6853 4.29797 24.0694 6.66873 24.4858 9.27083L26.1165 21.9275C26.2165 22.7003 26.0109 23.481 25.5402 24.1163C25.0696 24.7515 24.3677 25.1955 23.5726 25.3609C16.6705 26.9129 9.48653 26.9129 2.58455 25.3609Z" fill="#203238"/>
</svg>
