<svg width="25" height="22" viewBox="0 0 25 22" fill="none" xmlns="http://www.w3.org/2000/svg">
<path d="M2.94879 7.65184L3.78215 9.10506C4.31268 10.0303 4.57794 10.4928 4.57794 11C4.57794 11.5072 4.31268 11.9697 3.78217 12.8949L2.94879 14.3481C0.575799 18.4863 -0.610698 20.5555 0.314545 21.5816C1.23979 22.6076 3.43075 21.6524 7.81267 19.742L19.8389 14.499C23.2797 12.999 25 12.2489 25 11C25 9.75109 23.2797 9.00099 19.8389 7.50098L7.81269 2.25792C3.43077 0.347555 1.23979 -0.607639 0.314545 0.41844C-0.610698 1.44452 0.575799 3.51361 2.94879 7.65184Z" fill="#0071DA"/>
</svg>
